<?xml version="1.0" standalone="no"?>
<!DOCTYPE svg PUBLIC "-//W3C//DTD SVG 20010904//EN"
 "http://www.w3.org/TR/2001/REC-SVG-20010904/DTD/svg10.dtd">
<svg version="1.0" xmlns="http://www.w3.org/2000/svg"
 width="545.000000pt" height="298.000000pt" viewBox="0 0 545.000000 298.000000"
 preserveAspectRatio="xMidYMid meet">

<g transform="translate(0.000000,298.000000) scale(0.100000,-0.100000)"
fill="#000000" stroke="none">
<path d="M1141 2733 c0 -4 17 -35 39 -68 21 -33 62 -100 91 -149 30 -48 61
-99 69 -111 14 -23 65 -104 195 -317 33 -53 89 -146 125 -205 35 -60 86 -140
112 -180 26 -39 48 -76 48 -81 0 -6 3 -12 8 -14 4 -1 14 -15 22 -30 59 -106
97 -159 117 -164 24 -6 93 3 93 12 0 6 -47 85 -138 231 -67 110 -183 298 -267
435 -33 54 -106 174 -163 266 -57 92 -109 176 -115 187 -7 11 -20 31 -29 44
-10 13 -18 28 -18 32 0 5 236 9 525 9 507 0 527 -1 565 -20 49 -25 65 -49 80
-122 8 -41 8 -73 1 -114 -13 -70 -29 -95 -78 -125 -35 -22 -51 -24 -205 -27
-93 -3 -168 -6 -168 -8 0 -1 14 -24 31 -49 l32 -47 156 4 c173 4 204 13 268
80 47 49 65 101 71 204 8 157 -33 245 -142 302 l-51 27 -637 3 c-351 1 -638
-1 -637 -5z"/>
<path d="M3051 2711 c-10 -10 -44 -61 -75 -112 -32 -52 -102 -166 -156 -254
-55 -88 -132 -213 -172 -278 -40 -65 -103 -166 -139 -225 -37 -59 -95 -155
-130 -214 -35 -59 -68 -108 -74 -108 -5 0 -36 44 -68 98 -62 102 -151 249
-227 370 -25 40 -49 81 -55 90 -5 9 -41 67 -78 127 -38 61 -74 119 -80 129 -7
11 -31 51 -54 88 l-43 68 -55 0 c-32 0 -55 -4 -55 -11 0 -5 26 -52 58 -103 32
-51 62 -99 65 -107 4 -8 25 -41 47 -74 21 -33 66 -105 100 -160 33 -55 87
-143 120 -195 33 -52 64 -104 70 -115 5 -11 42 -69 80 -130 39 -60 78 -125 87
-143 l17 -33 70 3 70 3 102 165 c57 91 127 206 157 255 73 121 203 333 261
425 90 145 274 445 272 446 0 1 -22 4 -49 7 -38 5 -51 3 -66 -12z"/>
<path d="M3302 2677 c-12 -13 -22 -32 -22 -42 0 -10 31 -48 68 -84 86 -83 121
-161 129 -291 l5 -85 -77 -39 c-42 -22 -95 -53 -117 -68 -45 -33 -88 -114 -88
-166 0 -74 67 -153 158 -187 26 -10 49 -19 51 -21 2 -2 -10 -19 -28 -39 -36
-41 -36 -42 -51 -207 -13 -150 -8 -168 45 -168 49 0 61 30 70 169 l8 114 41
40 c75 72 163 147 172 147 11 0 18 -12 74 -115 23 -44 56 -105 73 -135 16 -30
41 -77 55 -105 40 -82 69 -115 101 -115 59 0 67 51 21 130 -16 28 -30 53 -30
55 0 2 -25 51 -56 107 -92 168 -117 214 -216 408 l-96 185 -5 105 c-8 153 -47
251 -135 343 -38 39 -107 87 -125 87 -2 0 -13 -10 -25 -23z m90 -787 c31 -59
34 -70 20 -70 -25 0 -90 46 -97 70 -6 20 17 70 33 70 4 0 24 -31 44 -70z"/>
<path d="M3235 2411 c-73 -44 -85 -114 -31 -177 30 -35 38 -39 81 -39 41 0 51
4 81 37 56 61 43 143 -28 179 -46 24 -65 24 -103 0z"/>
<path d="M4660 761 c0 -104 4 -192 8 -195 25 -15 32 16 34 156 l3 147 155
-126 c85 -69 170 -138 188 -154 18 -16 37 -29 42 -29 6 0 10 75 10 190 0 159
-2 190 -14 190 -21 0 -28 -63 -24 -198 2 -61 1 -112 -1 -112 -1 0 -44 33 -95
74 -50 41 -120 98 -156 126 -36 29 -84 68 -107 87 l-43 34 0 -190z"/>
<path d="M442 928 c-8 -8 -12 -64 -12 -185 0 -166 1 -173 20 -173 18 0 20 7
20 80 l0 80 159 0 c215 0 241 11 241 100 0 96 -33 110 -253 110 -113 0 -167
-4 -175 -12z m373 -42 c24 -18 27 -92 5 -106 -8 -5 -90 -10 -182 -10 l-168 0
0 58 c0 32 3 62 7 65 3 4 77 7 163 7 118 0 161 -3 175 -14z"/>
<path d="M916 918 c-3 -13 -4 -97 -3 -188 2 -139 4 -165 17 -165 12 0 16 17
18 83 l3 82 182 -2 182 -3 3 -83 c2 -60 6 -82 15 -79 9 3 13 55 15 190 2 160
0 187 -12 187 -12 0 -16 -18 -18 -82 l-3 -83 -182 -3 -182 -2 -3 81 c-2 54 -7
84 -15 86 -7 3 -14 -6 -17 -19z"/>
<path d="M1390 931 c0 -5 16 -22 37 -37 66 -52 168 -138 175 -149 4 -5 8 -47
8 -92 0 -45 4 -84 8 -87 21 -13 31 15 34 94 l3 84 65 54 c146 121 161 134 156
139 -13 13 -59 -12 -145 -82 -52 -41 -97 -75 -100 -75 -4 0 -35 22 -69 50
-125 101 -172 128 -172 101z"/>
<path d="M1935 926 c-17 -7 -35 -19 -41 -27 -34 -41 -18 -134 26 -156 17 -9
75 -13 176 -13 168 0 184 -6 184 -68 0 -54 -24 -62 -193 -62 l-148 0 -20 35
c-12 19 -25 35 -30 35 -19 0 -8 -57 14 -78 22 -21 33 -22 194 -22 149 0 172 2
186 18 30 33 38 71 25 114 -19 64 -32 68 -208 68 -85 0 -162 5 -170 10 -18 11
-20 84 -2 102 9 9 56 14 150 16 116 3 142 1 170 -14 18 -10 32 -25 32 -36 0
-19 25 -25 35 -8 10 15 -27 73 -56 87 -34 18 -284 17 -324 -1z"/>
<path d="M2395 918 c-3 -13 -4 -97 -3 -188 3 -139 5 -165 18 -165 13 0 15 27
15 184 0 136 -3 185 -12 188 -7 3 -15 -6 -18 -19z"/>
<path d="M2583 926 c-17 -8 -36 -23 -42 -35 -6 -11 -11 -72 -11 -136 0 -120
12 -166 45 -179 9 -3 91 -6 181 -6 162 0 165 0 189 25 24 23 25 30 25 144 0
190 -5 195 -210 198 -109 2 -153 0 -177 -11z m325 -42 c21 -14 22 -22 22 -139
0 -113 -2 -125 -19 -135 -11 -5 -86 -10 -170 -10 -133 0 -151 2 -159 18 -14
25 -21 139 -14 202 9 74 22 80 187 80 102 0 135 -3 153 -16z"/>
<path d="M3000 928 c0 -7 37 -72 83 -145 45 -72 95 -153 110 -179 24 -40 30
-45 41 -33 28 29 228 361 222 367 -18 18 -44 -16 -168 -220 -29 -49 -57 -88
-63 -88 -5 0 -44 57 -85 127 -76 129 -115 183 -131 183 -5 0 -9 -6 -9 -12z"/>
<path d="M3517 934 c-10 -11 -8 -374 2 -374 27 0 31 33 29 200 -3 163 -9 196
-31 174z"/>
<path d="M3648 924 c-43 -18 -64 -64 -54 -118 12 -65 29 -70 214 -76 165 -5
167 -5 179 -30 15 -29 9 -70 -14 -88 -19 -13 -299 -17 -320 -4 -6 4 -16 20
-22 35 -14 36 -31 35 -31 -3 0 -17 9 -38 22 -50 20 -18 34 -20 194 -20 l173 0
20 26 c33 41 29 108 -8 145 l-29 29 -152 0 c-85 0 -160 5 -171 10 -23 13 -26
67 -5 96 13 17 30 19 161 22 155 4 168 1 186 -45 9 -25 39 -32 39 -9 0 33 -21
64 -53 79 -48 23 -275 23 -329 1z"/>
<path d="M4104 928 c-11 -18 -16 -341 -6 -357 25 -36 32 4 32 185 0 171 -5
206 -26 172z"/>
<path d="M4233 925 c-17 -7 -36 -22 -42 -34 -6 -11 -11 -74 -11 -144 0 -111 2
-127 21 -151 l20 -26 175 0 c158 0 176 2 193 19 25 25 35 90 29 196 -5 91 -22
129 -64 145 -40 16 -283 12 -321 -5z m328 -46 c19 -19 21 -30 18 -140 -3 -93
-7 -122 -19 -129 -8 -5 -81 -10 -161 -10 -192 0 -184 -6 -184 145 0 157 -3
155 186 155 128 0 141 -2 160 -21z"/>
<path d="M2417 393 c-4 -3 -7 -19 -7 -34 0 -26 -2 -27 -38 -22 -34 4 -42 1
-60 -22 -27 -35 -28 -59 -1 -96 21 -30 71 -41 84 -19 5 8 11 7 21 -1 12 -10
14 4 14 95 0 106 -1 112 -13 99z m-17 -88 c17 -21 8 -76 -15 -91 -31 -21 -65
6 -65 51 0 56 47 79 80 40z"/>
<path d="M3672 298 c3 -94 5 -103 23 -106 16 -3 18 -1 8 9 -9 8 -13 44 -13
100 0 50 -4 91 -10 94 -7 5 -10 -27 -8 -97z"/>
<path d="M4008 394 c-12 -11 -10 -204 2 -204 6 0 10 24 10 54 0 45 4 58 22 70
37 26 58 5 58 -59 0 -29 5 -57 10 -60 6 -4 10 20 10 64 0 67 -1 71 -25 77 -14
3 -36 3 -49 0 -23 -6 -25 -3 -28 30 -2 20 -6 32 -10 28z"/>
<path d="M4476 393 c-11 -11 -6 -23 9 -23 8 0 15 4 15 9 0 13 -16 22 -24 14z"/>
<path d="M962 378 c-8 -11 -72 -173 -72 -185 0 -2 4 -3 9 -3 5 0 14 14 21 31
12 27 16 30 54 27 34 -3 43 -8 55 -33 27 -56 24 -5 -4 73 -32 89 -46 110 -63
90z m31 -55 c3 -16 9 -36 12 -45 6 -15 1 -18 -30 -18 -34 0 -37 2 -30 23 3 12
9 32 12 45 7 31 29 28 36 -5z"/>
<path d="M1313 383 c-22 -4 -23 -9 -23 -99 0 -56 4 -94 10 -94 6 0 10 18 10
40 l0 40 40 0 c68 0 99 54 56 96 -13 14 -63 23 -93 17z m65 -19 c19 -5 23 -12
20 -38 -3 -29 -6 -31 -45 -34 -43 -3 -43 -3 -43 31 0 48 13 55 68 41z"/>
<path d="M2578 384 c-16 -5 -18 -19 -18 -100 0 -91 16 -132 22 -56 3 36 5 37
47 43 65 9 92 57 52 93 -19 18 -74 28 -103 20z m69 -20 c27 -7 36 -29 23 -55
-8 -14 -21 -19 -49 -19 -36 0 -38 2 -39 32 -1 49 10 56 65 42z"/>
<path d="M3837 383 c-16 -4 -17 -15 -15 -96 3 -92 20 -127 26 -54 3 34 5 37
35 37 58 0 95 46 69 87 -16 25 -71 37 -115 26z m89 -34 c25 -28 8 -53 -40 -57
l-36 -3 0 40 c0 38 2 41 28 41 16 0 37 -9 48 -21z"/>
<path d="M1100 285 c0 -57 4 -95 10 -95 6 0 10 38 10 95 0 57 -4 95 -10 95 -6
0 -10 -38 -10 -95z"/>
<path d="M1480 318 c-26 -28 -26 -68 1 -102 41 -53 119 -20 119 51 0 65 -76
98 -120 51z m89 -19 c18 -32 8 -74 -20 -90 -17 -9 -25 -7 -45 12 -29 28 -31
62 -3 90 25 25 49 21 68 -12z"/>
<path d="M1635 308 c14 -71 26 -107 36 -114 14 -8 38 25 39 53 0 51 30 76 30
26 0 -31 20 -75 35 -80 13 -4 32 45 41 107 9 60 -7 44 -27 -28 -17 -59 -19
-58 -39 21 -17 63 -36 60 -51 -8 -7 -31 -16 -58 -19 -60 -4 -3 -13 22 -20 55
-7 33 -17 60 -22 60 -5 0 -7 -14 -3 -32z"/>
<path d="M1871 314 c-26 -34 -26 -58 0 -95 15 -22 28 -29 53 -29 17 0 37 5 44
12 21 21 13 29 -17 14 -25 -13 -31 -13 -50 0 -11 8 -21 24 -21 36 0 19 5 20
55 16 46 -4 55 -2 55 11 0 60 -81 83 -119 35z m80 -2 c27 -23 17 -30 -35 -22
-38 5 -39 6 -22 23 22 21 28 21 57 -1z"/>
<path d="M2021 291 c2 -64 10 -101 20 -101 5 0 9 24 9 54 0 58 18 90 45 80 8
-4 15 -2 15 4 0 6 -20 10 -45 10 l-46 -1 2 -46z"/>
<path d="M2157 322 c-24 -26 -22 -87 3 -112 22 -22 69 -27 88 -8 22 22 13 31
-14 13 -24 -15 -27 -15 -50 0 -41 27 -27 50 30 50 56 0 66 13 42 50 -20 31
-74 34 -99 7z m82 -15 c15 -19 8 -23 -39 -19 -33 3 -39 7 -29 18 15 18 53 18
68 1z"/>
<path d="M2747 322 c-10 -10 -17 -34 -17 -54 0 -65 74 -103 115 -58 22 24 13
26 -19 5 -26 -18 -52 -11 -67 16 -16 31 -1 42 52 37 45 -5 49 -3 49 17 0 49
-79 75 -113 37z m85 -16 c14 -21 8 -25 -29 -19 -48 7 -52 11 -30 28 19 14 46
10 59 -9z"/>
<path d="M2900 263 c0 -82 16 -98 25 -25 3 26 7 54 8 62 1 8 12 16 25 18 38 6
24 21 -18 19 l-40 -1 0 -73z"/>
<path d="M3022 328 c-21 -21 -14 -48 16 -59 65 -26 76 -41 42 -59 -17 -9 -26
-8 -46 5 -25 16 -33 8 -12 -13 17 -17 64 -15 82 4 30 30 17 53 -39 71 -44 14
-39 38 8 37 38 -1 49 9 21 20 -25 10 -59 7 -72 -6z"/>
<path d="M3184 332 c-38 -25 -44 -90 -11 -120 47 -44 117 -12 117 53 0 55 -64
95 -106 67z m66 -22 c11 -11 20 -31 20 -45 0 -25 -31 -65 -50 -65 -5 0 -19 9
-31 21 -24 24 -20 75 8 97 23 16 30 15 53 -8z"/>
<path d="M3331 268 c-2 -78 15 -99 24 -31 10 71 14 80 36 86 32 9 49 -19 49
-79 0 -30 5 -54 10 -54 13 0 13 106 0 131 -9 15 -20 18 -64 16 l-54 -2 -1 -67z"/>
<path d="M3514 326 c-10 -8 -16 -18 -12 -22 4 -4 14 -1 22 5 17 15 58 11 63
-5 2 -7 -15 -18 -39 -25 -32 -11 -44 -20 -46 -37 -6 -44 45 -70 77 -39 11 10
14 10 18 0 3 -7 12 -13 21 -13 12 0 13 3 4 12 -7 7 -12 35 -12 63 0 28 -5 56
-12 63 -16 16 -60 15 -84 -2z m73 -73 c9 -23 -34 -58 -53 -42 -8 6 -14 20 -14
30 0 16 8 20 53 28 4 0 10 -6 14 -16z"/>
<path d="M4160 337 c0 -1 14 -38 30 -80 33 -85 30 -111 -12 -120 -16 -4 -13
-5 7 -4 33 2 44 19 89 140 27 69 17 97 -10 30 -31 -79 -36 -89 -41 -73 -2 8
-9 24 -14 35 -5 11 -13 32 -19 48 -5 15 -14 27 -20 27 -5 0 -10 -1 -10 -3z"/>
<path d="M4330 319 c-15 -26 12 -59 47 -59 29 0 41 -26 22 -46 -12 -12 -18
-11 -43 1 -16 9 -32 13 -35 9 -10 -10 32 -34 60 -34 56 0 67 66 14 83 -48 15
-60 29 -40 43 12 9 25 10 42 3 29 -11 45 -3 23 11 -28 18 -78 12 -90 -11z"/>
<path d="M4480 265 c0 -43 4 -75 10 -75 6 0 10 32 10 75 0 43 -4 75 -10 75 -6
0 -10 -32 -10 -75z"/>
<path d="M4566 324 c-16 -15 -20 -39 -16 -79 5 -52 72 -73 110 -35 45 45 13
130 -49 130 -16 0 -37 -7 -45 -16z m72 -10 c25 -17 31 -71 10 -92 -17 -17 -53
-15 -68 3 -19 22 -14 74 7 91 23 17 24 17 51 -2z"/>
<path d="M1170 290 c0 -5 19 -10 43 -10 31 0 38 3 27 10 -20 13 -70 13 -70 0z"/>
</g>
</svg>
